<?xml version="1.0" standalone="no"?>
<!DOCTYPE svg PUBLIC "-//W3C//DTD SVG 20010904//EN"
 "http://www.w3.org/TR/2001/REC-SVG-20010904/DTD/svg10.dtd">
<svg version="1.0" xmlns="http://www.w3.org/2000/svg"
 width="2480.000000pt" height="3508.000000pt" viewBox="0 0 2480.000000 3508.000000"
 preserveAspectRatio="xMidYMid meet">

<g transform="translate(0.000000,3508.000000) scale(0.100000,-0.100000)"
fill="#000000" stroke="none">
<path d="M14745 25408 l-28 -24 608 -1069 c508 -894 606 -1073 599 -1091 -5
-12 -286 -509 -624 -1103 l-614 -1081 -1246 0 -1246 0 -564 995 -565 995 -43
0 c-38 0 -42 -2 -33 -17 5 -10 268 -472 584 -1028 l575 -1010 1292 0 1292 0
647 1137 646 1138 1280 2 1280 3 3 37 3 38 -1313 2 -1312 3 -584 1025 c-320
564 -588 1036 -596 1048 l-13 24 -28 -24z"/>
<path d="M9173 22508 c-5 -7 -119 -219 -254 -470 -134 -252 -246 -458 -249
-458 -3 0 -87 150 -186 333 l-182 332 -702 0 -702 0 -349 -638 -349 -637 349
-638 349 -637 703 -3 704 -2 35 67 c66 127 322 598 329 605 6 7 171 -294 340
-622 44 -85 97 -187 117 -225 l37 -71 -396 -741 c-218 -408 -397 -745 -397
-748 0 -9 324 -617 366 -686 32 -54 234 -428 234 -434 0 -1 -20 -38 -44 -81
-24 -44 -173 -314 -330 -602 l-285 -522 348 -638 349 -637 699 -3 699 -2 347
634 c191 349 347 640 347 648 0 7 -95 184 -209 393 l-209 380 45 3 c25 2 50
-1 55 -6 9 -9 168 -297 600 -1089 l230 -423 852 0 851 0 30 58 c61 115 338
618 362 657 14 22 118 211 232 420 l207 380 779 2 780 3 61 -113 c83 -153 704
-1289 740 -1354 l29 -53 850 1 850 0 101 187 c204 377 697 1278 725 1325 21
35 26 51 18 60 -5 7 -90 158 -188 337 -97 179 -284 522 -416 763 l-239 437
-831 0 -832 0 -12 28 c-7 15 -75 140 -151 277 -76 138 -231 421 -345 630 -115
209 -225 412 -247 450 -21 39 -46 85 -55 103 l-17 32 -849 -2 -849 -3 -208
-380 c-114 -209 -300 -549 -412 -755 l-206 -375 -783 -2 -784 -3 -333 623
c-183 342 -362 676 -397 741 l-65 119 396 741 c218 408 398 743 399 746 2 3
-182 352 -409 775 l-411 770 -826 3 c-654 2 -828 -1 -836 -10z m2012 -798
l393 -735 -56 -105 c-31 -58 -208 -388 -393 -735 l-337 -630 -234 -3 c-128 -2
-482 0 -785 3 l-553 7 -51 97 c-29 53 -80 146 -114 206 -99 175 -335 621 -335
633 0 6 63 126 140 267 l140 255 -142 258 c-78 141 -141 262 -141 268 0 9 303
583 465 882 l40 72 785 -2 785 -3 393 -735z m4590 -2405 c40 -71 182 -332 317
-580 135 -247 283 -517 328 -600 46 -82 83 -154 83 -160 0 -5 -96 -185 -214
-400 -117 -214 -297 -543 -399 -730 l-185 -340 -780 -2 -780 -3 -61 113 c-51
94 -676 1238 -744 1362 l-22 40 259 475 c143 261 318 582 389 712 l129 237
680 3 c374 2 736 3 805 3 l124 0 71 -130z m-4930 58 c420 -784 736 -1381 737
-1393 0 -8 -102 -202 -227 -430 -126 -228 -250 -458 -278 -510 -27 -52 -105
-197 -174 -322 l-125 -228 -68 0 -68 0 -118 215 -118 215 -697 0 -697 0 -35
63 c-19 34 -73 136 -120 227 -46 91 -138 266 -205 390 -66 124 -137 257 -158
295 l-37 70 278 520 c153 286 329 615 391 730 l112 210 294 5 c161 3 514 6
785 8 l492 2 36 -67z m7464 -1671 c69 -125 250 -456 403 -736 l278 -510 -91
-165 c-51 -91 -224 -409 -386 -706 -162 -297 -302 -552 -311 -568 l-16 -27
-804 2 -804 3 -145 265 c-79 146 -236 432 -348 635 -111 204 -226 414 -255
467 l-52 98 62 112 c35 62 181 329 325 593 144 264 298 544 340 623 l79 142
800 0 801 0 124 -228z m-4988 115 c155 -286 605 -1108 668 -1221 39 -70 71
-132 71 -137 0 -8 -109 -209 -340 -629 -60 -108 -114 -210 -122 -227 -7 -17
-85 -162 -173 -322 l-160 -291 -803 3 -804 2 -262 480 c-144 264 -322 590
-396 724 l-133 243 26 54 c19 39 734 1365 764 1417 2 4 365 7 806 7 l802 0 56
-103z"/>
<path d="M9240 22300 l0 -40 745 0 745 0 0 40 0 40 -745 0 -745 0 0 -40z"/>
<path d="M9955 21759 c-259 -37 -405 -326 -405 -803 0 -415 102 -682 298 -778
63 -31 73 -33 177 -33 105 0 114 2 177 33 75 37 156 106 205 175 l32 44 -69
47 c-39 25 -70 42 -70 36 0 -5 -28 -39 -62 -76 -106 -113 -208 -142 -315 -89
-59 30 -92 69 -133 158 -53 115 -65 202 -65 487 0 232 2 263 23 345 41 163 96
250 182 288 53 24 131 26 181 4 46 -19 112 -78 141 -125 12 -21 23 -39 24 -41
2 -2 111 59 132 75 8 6 -31 65 -74 113 -105 117 -225 161 -379 140z"/>
<path d="M15537 19306 c-19 -15 -14 -27 87 -206 21 -36 40 -73 43 -82 3 -10 9
-18 14 -18 5 0 9 -4 9 -9 0 -5 28 -57 61 -117 34 -60 81 -143 104 -184 42 -74
63 -111 102 -180 11 -19 91 -160 178 -312 86 -153 160 -278 164 -278 4 0 16 7
27 15 19 14 19 15 0 47 -80 142 -158 279 -209 368 -33 58 -76 134 -97 170 -20
36 -65 115 -100 175 -34 61 -88 155 -119 210 -163 288 -237 415 -241 414 -3 0
-13 -6 -23 -13z"/>
<path d="M14497 18664 c-4 -4 -7 -362 -7 -796 l0 -788 85 0 85 0 0 385 0 385
240 0 240 0 0 -385 0 -385 80 0 80 0 0 795 0 795 -80 0 -80 0 0 -335 0 -335
-240 0 -240 0 -2 333 -3 332 -75 3 c-42 1 -79 0 -83 -4z"/>
<path d="M9760 18070 l0 -620 78 0 79 0 6 282 c4 155 9 284 12 287 3 2 118 7
255 9 l250 5 0 46 c0 25 3 56 6 69 l6 22 -261 0 -261 0 0 180 0 180 123 0 c68
0 206 3 305 7 l182 6 0 67 0 67 -242 6 c-133 4 -308 7 -390 7 l-148 0 0 -620z"/>
<path d="M16455 16802 c-48 -23 -69 -45 -90 -95 -23 -56 -20 -77 13 -77 23 0
31 7 47 42 26 55 65 83 116 83 34 0 46 -6 70 -33 29 -32 39 -86 23 -126 -3 -9
-71 -98 -150 -198 -118 -150 -144 -189 -144 -215 l0 -33 185 0 185 0 0 30 0
29 -141 3 -141 3 130 166 c71 92 134 181 141 199 28 82 5 164 -60 212 -39 29
-133 34 -184 10z"/>
<path d="M17021 16788 c-59 -40 -73 -82 -83 -247 -13 -223 8 -325 76 -374 25
-18 45 -22 103 -22 87 0 116 17 153 91 23 46 25 61 28 221 5 204 -6 258 -63
313 -33 32 -41 35 -108 38 -62 3 -77 1 -106 -20z m150 -48 c10 -6 27 -25 36
-43 15 -27 18 -59 18 -217 0 -168 -2 -189 -21 -225 -35 -66 -121 -74 -166 -15
-26 35 -41 180 -33 310 7 115 21 159 56 184 26 18 81 21 110 6z"/>
<path d="M17656 16800 c-55 -17 -106 -80 -121 -147 -6 -32 -6 -33 28 -33 29 0
36 4 42 27 18 72 81 111 150 92 60 -17 89 -87 62 -150 -8 -19 -78 -115 -156
-213 -112 -142 -141 -184 -139 -205 l3 -26 183 -3 182 -2 0 30 0 30 -135 0
c-74 0 -135 3 -135 8 0 4 50 70 111 147 147 187 164 216 164 285 0 66 -26 115
-72 143 -37 21 -125 31 -167 17z"/>
<path d="M18146 16751 c-3 -24 -6 -99 -6 -167 l0 -124 29 0 c16 0 45 7 64 15
94 39 176 -3 177 -92 0 -113 -73 -178 -215 -190 -74 -6 -75 -6 -75 -34 0 -28
1 -29 53 -29 184 1 307 99 307 246 0 67 -21 109 -73 148 -24 17 -43 21 -113
21 l-85 0 3 95 3 94 133 -3 132 -3 0 31 0 30 -164 3 -164 3 -6 -44z"/>
<path d="M11710 17720 l0 -40 689 0 690 0 237 -417 c131 -230 295 -519 366
-642 70 -124 129 -230 132 -235 6 -17 61 18 60 37 -1 9 -82 158 -180 329 -98
172 -253 446 -345 608 -92 162 -182 319 -200 348 l-33 52 -708 0 -708 0 0 -40z"/>
<path d="M12117 17243 c-4 -3 -7 -37 -7 -75 l0 -68 170 0 170 0 2 -717 3 -718
83 -3 82 -3 0 721 0 720 165 0 165 0 0 75 0 75 -413 0 c-228 0 -417 -3 -420
-7z"/>
<path d="M5950 17903 c-80 -147 -168 -310 -196 -363 l-52 -95 198 -360 198
-360 263 0 263 0 87 160 87 160 137 5 137 5 104 190 c57 105 103 197 103 205
0 8 -87 173 -193 365 l-192 350 -400 2 -399 3 -145 -267z"/>
<path d="M14191 15405 l-32 -56 267 -487 c147 -268 267 -491 267 -497 0 -5
-131 -250 -292 -543 -160 -293 -297 -543 -303 -557 -9 -21 -3 -39 58 -149 l68
-126 683 0 c423 0 683 4 683 9 0 6 15 36 33 68 19 32 53 94 77 138 55 103 66
124 333 612 l225 412 -101 184 c-56 101 -208 378 -337 615 l-235 432 -682 0
-681 0 -31 -55z"/>
<path d="M13940 14948 c-96 -177 -193 -356 -216 -397 -95 -179 -168 -306 -177
-312 -6 -4 -2 -18 10 -35 11 -16 125 -222 253 -457 l234 -428 17 28 c27 45
549 1002 551 1012 3 10 -484 911 -492 910 -3 0 -84 -144 -180 -321z"/>
<path d="M6636 13891 c-3 -4 -57 -104 -120 -222 -132 -248 -180 -337 -338
-624 -64 -115 -129 -235 -145 -265 -101 -186 -186 -342 -253 -460 l-75 -135
45 -85 c25 -47 101 -186 169 -310 68 -124 137 -250 154 -280 63 -116 148 -272
237 -435 51 -93 112 -204 135 -245 23 -41 77 -141 121 -222 l79 -148 941 0
940 0 22 43 c32 63 117 221 171 317 27 47 90 162 141 255 51 94 119 217 150
275 32 58 75 137 95 175 67 122 116 210 125 219 4 4 13 -1 19 -13 12 -21 13
-21 511 -21 l499 0 62 113 c34 61 62 117 62 122 0 6 -138 262 -307 570 -168
308 -306 565 -306 570 0 6 54 108 119 228 l119 217 -375 -2 -375 -3 -126 -232
c-70 -127 -130 -234 -134 -238 -7 -7 -74 111 -186 325 -39 74 -118 221 -175
325 l-104 190 -946 3 c-522 1 -948 -2 -951 -7z m1973 -336 c76 -137 153 -277
173 -310 49 -83 158 -287 158 -296 0 -4 -38 -77 -85 -162 -47 -85 -85 -160
-85 -167 0 -7 93 -182 206 -388 l206 -376 -27 -56 c-15 -30 -58 -110 -96 -177
-38 -67 -69 -124 -69 -127 0 -2 -16 -33 -36 -68 -20 -34 -64 -115 -98 -178
-35 -63 -115 -209 -178 -325 -63 -115 -132 -241 -153 -280 -20 -38 -42 -76
-47 -82 -8 -10 -199 -13 -893 -13 -694 0 -885 3 -893 13 -5 6 -26 43 -46 81
-21 38 -88 162 -150 275 -195 355 -282 514 -321 586 -20 39 -61 113 -90 165
-57 104 -207 377 -249 454 -14 27 -26 53 -26 59 0 5 41 85 91 176 137 248 203
369 239 436 33 62 100 183 225 410 40 72 109 198 154 280 46 83 105 189 133
238 l50 87 885 -2 885 -3 137 -250z"/>
<path d="M6654 13263 c-157 -301 -177 -339 -214 -408 -21 -38 -62 -117 -93
-175 -30 -58 -77 -148 -104 -200 -28 -52 -85 -161 -127 -242 -43 -81 -74 -152
-71 -158 4 -6 17 -15 28 -19 24 -9 19 -17 186 304 46 88 91 174 101 190 10 17
50 93 90 170 121 233 190 364 257 488 34 65 63 128 63 140 -1 21 -21 57 -33
57 -3 0 -40 -66 -83 -147z"/>
<path d="M6710 10790 l0 -40 885 0 885 0 0 40 0 40 -885 0 -885 0 0 -40z"/>
<path d="M9965 13314 c-65 -119 -118 -222 -118 -229 0 -12 572 -1065 578
-1065 2 0 76 134 166 297 145 265 161 299 152 322 -6 14 -116 220 -246 456
l-236 430 -89 3 -89 3 -118 -217z"/>
<path d="M14455 11443 c-16 -8 -32 -17 -34 -19 -2 -2 38 -82 87 -178 l91 -175
-104 -213 c-58 -117 -105 -216 -105 -221 0 -8 68 -43 73 -36 2 2 40 83 86 179
46 96 87 178 90 183 4 4 47 -75 96 -175 48 -101 89 -184 90 -186 3 -4 75 28
75 33 0 3 -48 102 -107 220 l-108 215 88 176 c48 96 85 179 82 183 -9 15 -66
34 -75 25 -5 -5 -38 -74 -74 -154 l-65 -145 -41 90 c-23 50 -55 118 -71 153
-15 34 -32 62 -36 62 -4 -1 -21 -8 -38 -17z"/>
<path d="M14033 11443 l-23 -4 0 -337 c0 -316 -1 -339 -20 -369 -26 -44 -54
-56 -113 -50 -100 9 -107 37 -107 440 l0 317 -43 0 -42 0 2 -247 c6 -480 5
-464 35 -510 70 -106 255 -112 332 -11 44 59 49 115 41 462 -8 344 -3 320 -62
309z"/>
<path d="M10088 11431 c-134 -27 -201 -206 -184 -493 16 -247 87 -358 229
-358 98 0 164 53 202 160 42 119 40 425 -4 539 -45 120 -130 173 -243 152z
m129 -116 c49 -51 57 -97 58 -305 0 -215 -13 -280 -66 -324 -36 -30 -101 -35
-137 -10 -59 41 -88 185 -79 399 6 150 16 192 58 240 49 55 114 55 166 0z"/>
<path d="M12210 11020 l0 -420 205 0 205 0 0 40 0 40 -165 0 -165 0 0 165 0
165 135 0 135 0 0 40 0 40 -135 0 -135 0 0 135 0 135 160 0 160 0 0 40 0 40
-200 0 -200 0 0 -420z"/>
<path d="M13085 11428 c-2 -7 -47 -186 -100 -398 -53 -212 -98 -393 -101 -402
-4 -13 4 -19 32 -27 21 -6 40 -8 43 -5 3 3 20 62 36 132 l31 127 115 3 115 3
29 -125 c15 -68 31 -129 34 -135 7 -11 81 6 81 19 0 4 -47 188 -105 409 -58
221 -105 404 -105 406 0 12 -101 4 -105 -7z m104 -306 c22 -95 41 -174 41
-177 0 -3 -41 -5 -91 -5 -89 0 -91 0 -86 23 3 12 23 97 43 189 21 92 41 162
45 155 4 -6 25 -90 48 -185z"/>
<path d="M10710 11063 c0 -203 3 -392 6 -420 l7 -53 38 0 39 0 0 190 0 190 43
0 42 0 95 -191 c52 -105 98 -193 102 -195 10 -6 68 24 68 35 0 5 -36 82 -80
172 -44 90 -80 169 -80 176 0 6 9 14 19 18 31 9 89 80 100 122 16 56 13 158
-4 201 -41 96 -96 121 -267 122 l-128 0 0 -367z m284 255 c39 -39 51 -96 36
-164 -21 -93 -51 -114 -160 -114 l-70 0 0 155 0 155 81 0 c78 0 82 -1 113 -32z"/>
<path d="M11410 11396 c0 -32 3 -35 33 -38 l32 -3 3 -342 2 -343 -35 0 c-33 0
-35 -2 -35 -35 l0 -35 148 0 c140 0 151 1 201 26 104 52 135 141 135 379 0
227 -34 338 -118 394 -38 25 -46 26 -203 29 l-163 4 0 -36z m300 -54 c46 -23
69 -66 85 -159 27 -150 15 -355 -26 -434 -28 -55 -57 -71 -136 -72 l-68 -2 -3
330 c-1 181 0 336 3 342 7 19 104 16 145 -5z"/>
<path d="M9160 11380 c0 -39 1 -40 35 -40 l35 0 0 -340 0 -340 -35 0 c-33 0
-35 -2 -35 -35 l0 -35 165 0 c172 0 199 5 249 49 53 46 81 188 56 281 -12 43
-66 110 -100 122 -12 5 -10 9 9 23 76 56 80 210 8 292 -49 56 -77 63 -242 63
l-145 0 0 -40z m312 -69 c31 -28 33 -33 33 -101 0 -68 -2 -73 -33 -101 -29
-26 -40 -29 -97 -29 l-65 0 0 130 0 130 65 0 c57 0 68 -3 97 -29z m16 -331
c18 -11 40 -36 48 -55 20 -49 18 -141 -5 -192 -26 -57 -63 -75 -149 -71 l-67
3 -3 168 -2 167 72 0 c56 0 81 -5 106 -20z"/>
</g>
</svg>
